<svg width="63" height="63" viewBox="0 0 63 63" fill="none" xmlns="http://www.w3.org/2000/svg">
<path d="M31.3568 61.7136C48.1224 61.7136 61.7136 48.1224 61.7136 31.3568C61.7136 14.5912 48.1224 1 31.3568 1C14.5912 1 1 14.5912 1 31.3568C1 48.1224 14.5912 61.7136 31.3568 61.7136Z" fill="#EF39A8" stroke="black"/>
<path d="M31.3568 55.6442C44.7703 55.6442 55.6442 44.7703 55.6442 31.3568C55.6442 17.9433 44.7703 7.06943 31.3568 7.06943C17.9432 7.06943 7.06943 17.9433 7.06943 31.3568C7.06943 44.7703 17.9432 55.6442 31.3568 55.6442Z" fill="#BD399C" stroke="black"/>
<path d="M31.3568 49.5715C41.4165 49.5715 49.5715 41.4165 49.5715 31.3568C49.5715 21.2971 41.4165 13.1421 31.3568 13.1421C21.2971 13.1421 13.1421 21.2971 13.1421 31.3568C13.1421 41.4165 21.2971 49.5715 31.3568 49.5715Z" fill="#93388E" stroke="black"/>
<path d="M31.3568 43.5005C38.0636 43.5005 43.5005 38.0636 43.5005 31.3568C43.5005 24.65 38.0636 19.2131 31.3568 19.2131C24.65 19.2131 19.2131 24.65 19.2131 31.3568C19.2131 38.0636 24.65 43.5005 31.3568 43.5005Z" fill="#563379" stroke="black"/>
</svg>
